<svg width="40" height="37" viewBox="0 0 40 37" fill="none" xmlns="http://www.w3.org/2000/svg">
<path d="M40 0.546051H27.6635V2.57543H28.9987C31.2417 2.57543 32.0427 3.21628 32.47 5.29906C32.9506 7.59545 33.1108 10.9065 33.1108 15.98C33.1108 18.6502 33.1642 24.9519 33.1642 26.2336L17.9439 7.16821C16.0214 4.76501 14.4192 2.68223 13.1375 0.546051L0 0.599458V2.57543H1.33511C2.61682 2.57543 3.5247 3.4299 3.84513 4.92522C4.16555 6.47395 4.32577 9.09078 4.32577 12.6689V23.6702C4.32577 25.8064 4.27236 29.2777 4.05874 31.7343C3.89853 33.4967 3.84513 34.1375 2.61682 34.1375H1.81575V36.1669H14.1522V34.1375H12.8171C10.5741 34.1375 9.77303 33.4967 9.34579 31.4139C8.86515 29.1175 8.70494 25.8064 8.70494 20.733C8.70494 17.1549 8.65153 10.8531 8.65153 9.03737L24.7797 28.4766C27.6101 31.8945 28.6782 33.5501 31.0814 36.9145H37.757C37.49 32.9092 37.49 30.8798 37.49 27.6756V13.0427C37.49 10.9065 37.5434 7.43524 37.757 4.97863C37.9172 3.21628 37.9706 2.57543 39.1989 2.57543H40V0.546051Z" fill="#F5F5F5"/>
</svg>
